<svg version="1.1" id="Layer_1" xmlns="http://www.w3.org/2000/svg" xmlns:xlink="http://www.w3.org/1999/xlink" x="0px" y="0px" viewBox="0 0 14 20" width="18" height="20" xml:space="preserve">
<style type="text/css">.st0{fill:currentcolor;}</style>
<path class="st0" d="M7,19.5L7,19.5c-3.6,0-6.5-3.1-6.5-6.8V7.3c0-3.7,2.9-6.8,6.5-6.8c3.6,0,6.5,3.1,6.5,6.8v5.4
	C13.5,16.4,10.6,19.5,7,19.5z M7,1.5C4,1.5,1.5,4.1,1.5,7.3v5.4c0,3.2,2.5,5.8,5.5,5.8h0c3,0,5.5-2.6,5.5-5.8V7.3
	C12.5,4.1,10,1.5,7,1.5z"></path>
<path class="st0" d="M7,10L7,10c-0.3,0-0.5-0.2-0.5-0.5v-5C6.5,4.2,6.7,4,7,4h0c0.3,0,0.5,0.2,0.5,0.5v5C7.5,9.8,7.3,10,7,10z"></path>
</svg>