<svg viewBox="0 0 10 10" fill="none" xmlns="http://www.w3.org/2000/svg"><path d="M9.6875 8.37201H9.375V9.21545C9.375 9.29159 9.34408 9.35748 9.28223 9.41312C9.22038 9.46877 9.14714 9.49659 9.0625 9.49659C8.97786 9.49659 8.90462 9.46877 8.84277 9.41312C8.78092 9.35748 8.75 9.29159 8.75 9.21545V8.37201H8.125V9.21545C8.125 9.29159 8.09408 9.35748 8.03223 9.41312C7.97038 9.46877 7.89714 9.49659 7.8125 9.49659C7.72786 9.49659 7.65462 9.46877 7.59277 9.41312C7.53092 9.35748 7.5 9.29159 7.5 9.21545V8.37201H6.875V9.21545C6.875 9.29159 6.84408 9.35748 6.78223 9.41312C6.72038 9.46877 6.64714 9.49659 6.5625 9.49659C6.47786 9.49659 6.40462 9.46877 6.34277 9.41312C6.28092 9.35748 6.25 9.29159 6.25 9.21545V8.37201H5.625V9.21545C5.625 9.29159 5.59408 9.35748 5.53223 9.41312C5.47038 9.46877 5.39714 9.49659 5.3125 9.49659C5.22786 9.49659 5.15462 9.46877 5.09277 9.41312C5.03092 9.35748 5 9.29159 5 9.21545V8.37201H4.375V9.21545C4.375 9.29159 4.34408 9.35748 4.28223 9.41312C4.22038 9.46877 4.14714 9.49659 4.0625 9.49659C3.97786 9.49659 3.90462 9.46877 3.84277 9.41312C3.78092 9.35748 3.75 9.29159 3.75 9.21545V8.37201H3.125V9.21545C3.125 9.29159 3.09408 9.35748 3.03223 9.41312C2.97038 9.46877 2.89714 9.49659 2.8125 9.49659C2.72786 9.49659 2.65462 9.46877 2.59277 9.41312C2.53092 9.35748 2.5 9.29159 2.5 9.21545V8.37201H1.25L1.04492 1.70176H9.6875C9.77214 1.70176 9.84538 1.72958 9.90723 1.78523C9.96908 1.84087 10 1.90676 10 1.98291V8.09087C10 8.16701 9.96908 8.23291 9.90723 8.28855C9.84538 8.34419 9.77214 8.37201 9.6875 8.37201ZM9.375 3.31143C9.375 3.15915 9.31478 3.02736 9.19434 2.91608C9.07389 2.80479 8.92578 2.74915 8.75 2.74915H4.375C4.20573 2.74915 4.05924 2.80479 3.93555 2.91608C3.81185 3.02736 3.75 3.15915 3.75 3.31143V6.68515C3.75 6.8433 3.81185 6.97655 3.93555 7.08491C4.05924 7.19326 4.20573 7.24744 4.375 7.24744H8.75C8.92578 7.24744 9.07389 7.19326 9.19434 7.08491C9.31478 6.97655 9.375 6.8433 9.375 6.68515V3.31143ZM8.4375 6.68515H4.6875C4.60286 6.68515 4.52962 6.65733 4.46777 6.60169C4.40592 6.54605 4.375 6.48015 4.375 6.40401V3.59258C4.375 3.51644 4.40592 3.45054 4.46777 3.3949C4.52962 3.33926 4.60286 3.31143 4.6875 3.31143H8.4375C8.52214 3.31143 8.59538 3.33926 8.65723 3.3949C8.71908 3.45054 8.75 3.51644 8.75 3.59258V6.40401C8.75 6.48015 8.71908 6.54605 8.65723 6.60169C8.59538 6.65733 8.52214 6.68515 8.4375 6.68515ZM6.875 3.87372C6.52995 3.87372 6.23535 3.98354 5.99121 4.20319C5.74707 4.42283 5.625 4.68787 5.625 4.99829C5.625 5.30872 5.74707 5.57376 5.99121 5.7934C6.23535 6.01305 6.52995 6.12287 6.875 6.12287C7.22005 6.12287 7.51465 6.01305 7.75879 5.7934C8.00293 5.57376 8.125 5.30872 8.125 4.99829C8.125 4.68787 8.00293 4.42283 7.75879 4.20319C7.51465 3.98354 7.22005 3.87372 6.875 3.87372ZM6.87988 5.56058C6.70736 5.56058 6.55924 5.5064 6.43555 5.39805C6.31185 5.28969 6.25 5.1579 6.25 5.00269C6.25 4.84747 6.31185 4.71422 6.43555 4.60294C6.55924 4.49165 6.70736 4.43601 6.87988 4.43601C7.05241 4.43601 7.19889 4.49019 7.31934 4.59854C7.43978 4.7069 7.5 4.84015 7.5 4.99829C7.5 5.15644 7.43978 5.28969 7.31934 5.39805C7.19889 5.5064 7.05241 5.56058 6.87988 5.56058ZM1.65527 7.52356V9.21545C1.65527 9.29159 1.62435 9.35748 1.5625 9.41312C1.43723 9.52582 1.02214 9.49659 0.9375 9.49659C0.852865 9.49659 0.779622 9.46877 0.717773 9.41312C0.655924 9.35748 0.625 9.29159 0.625 9.21545V1.14261H0.3125C0.227865 1.14261 0.154622 1.11479 0.0927734 1.05915C0.0309245 1.00351 0 0.89745 0 0.821307C0 0.668184 0.0309245 0.639108 0.0927734 0.583465C0.154622 0.527822 0.227865 0.5 0.3125 0.5H0.9375C0.963542 0.5 0.983073 0.502929 0.996094 0.508786C1.25 0.5 1.25 0.5 1.5625 0.5C1.875 0.5 1.875 0.751021 1.875 0.821307L1.65527 7.52356Z" fill="#6D6E72"></path></svg>