<svg viewBox="0 0 10 10" fill="none" xmlns="http://www.w3.org/2000/svg"><path d="M8.75 5.01732C8.75 5.86605 8.75 6.71478 8.75 7.57217C8.75 8.28233 8.29099 8.75 7.58083 8.75C5.85739 8.75 4.14261 8.75 2.41917 8.75C1.71767 8.75 1.25 8.29099 1.25 7.58949C1.25 5.86605 1.25 4.15127 1.25 2.42783C1.25 1.71767 1.73499 1.25 2.44515 1.25C4.15127 1.25 5.85739 1.25 7.56351 1.25C8.27367 1.25 8.75 1.71767 8.75 2.42783C8.75 3.28522 8.75 4.15127 8.75 5.01732ZM5.01732 2.48845C4.48037 2.48845 3.95208 2.50577 3.42379 2.47979C2.95612 2.46247 2.47979 2.84353 2.48845 3.42379C2.49711 4.47171 2.48845 5.51963 2.48845 6.56755C2.48845 7.13914 2.83487 7.50288 3.40647 7.51155C4.47171 7.52021 5.52829 7.52021 6.59353 7.51155C7.15646 7.50288 7.51154 7.16512 7.52021 6.60219C7.53753 5.53695 7.52887 4.46305 7.52021 3.3978C7.52021 2.79157 7.02656 2.46247 6.56755 2.47979C6.04792 2.50577 5.52829 2.48845 5.01732 2.48845Z" fill="#6D6E72"></path><path d="M9.55476 4.47915H8.125V3.26831H9.55476C9.79933 3.26831 10 3.53927 10 3.8695C10 4.20819 9.79933 4.47915 9.55476 4.47915Z" fill="#6D6E72"></path><path d="M9.55476 6.73142H8.125V5.52905H9.55476C9.79933 5.52905 10 5.80001 10 6.13024C10 6.46047 9.79933 6.73142 9.55476 6.73142Z" fill="#6D6E72"></path><path d="M0.44375 5.52905H1.875V6.73989H0.44375C0.2 6.73142 0 6.46047 0 6.13024C0 5.80001 0.2 5.52905 0.44375 5.52905Z" fill="#6D6E72"></path><path d="M0.44375 3.26831H1.875V4.47915H0.44375C0.2 4.47915 0 4.20819 0 3.8695C0 3.53927 0.2 3.26831 0.44375 3.26831Z" fill="#6D6E72"></path><path d="M4.47927 0.44375V1.875H3.26843V0.44375C3.26843 0.2 3.53939 0 3.86962 0C4.20831 0 4.47927 0.2 4.47927 0.44375Z" fill="#6D6E72"></path><path d="M6.73167 0.44375V1.875H5.5293V0.44375C5.5293 0.2 5.80025 0 6.13048 0C6.46071 0 6.73167 0.2 6.73167 0.44375Z" fill="#6D6E72"></path><path d="M5.5293 9.55477V8.125H6.74013V9.55477C6.74013 9.79934 6.46918 10 6.13895 10C5.80025 10 5.5293 9.79934 5.5293 9.55477Z" fill="#6D6E72"></path><path d="M3.26843 9.55477V8.125H4.47927V9.55477C4.47927 9.79934 4.20831 10 3.87809 10C3.53939 10 3.26843 9.79934 3.26843 9.55477Z" fill="#6D6E72"></path><path d="M6.875 4.99588C6.875 5.42445 6.875 5.86126 6.875 6.28983C6.875 6.64423 6.65247 6.875 6.28983 6.875C5.42445 6.875 4.55906 6.875 3.70192 6.875C3.35577 6.875 3.125 6.64423 3.125 6.29808C3.125 5.43269 3.125 4.56731 3.125 3.71016C3.125 3.35577 3.35577 3.125 3.71016 3.125C4.57555 3.125 5.44093 3.125 6.29808 3.125C6.64423 3.125 6.875 3.35577 6.875 3.70192C6.875 4.13874 6.875 4.56731 6.875 4.99588Z" fill="#6D6E72"></path></svg>