<svg width="10" height="10" viewBox="0 0 10 10" fill="none" xmlns="http://www.w3.org/2000/svg"><path d="M3 3.5H3.875C3.98333 3.5 4.073 3.4645 4.144 3.3935C4.21467 3.32283 4.25 3.23333 4.25 3.125C4.25 3.01667 4.21467 2.92717 4.144 2.8565C4.073 2.7855 3.98333 2.75 3.875 2.75H2.75C2.60833 2.75 2.4895 2.79783 2.3935 2.8935C2.29783 2.9895 2.25 3.10833 2.25 3.25V4.375C2.25 4.48333 2.2855 4.57283 2.3565 4.6435C2.42717 4.7145 2.51667 4.75 2.625 4.75C2.73333 4.75 2.82283 4.7145 2.8935 4.6435C2.9645 4.57283 3 4.48333 3 4.375V3.5ZM6.75 5.25H5.875C5.76667 5.25 5.67717 5.28533 5.6065 5.356C5.5355 5.427 5.5 5.51667 5.5 5.625C5.5 5.73333 5.5355 5.82283 5.6065 5.8935C5.67717 5.9645 5.76667 6 5.875 6H7C7.14167 6 7.26033 5.952 7.356 5.856C7.452 5.76033 7.5 5.64167 7.5 5.5V4.375C7.5 4.26667 7.46467 4.177 7.394 4.106C7.323 4.03533 7.23333 4 7.125 4C7.01667 4 6.927 4.03533 6.856 4.106C6.78533 4.177 6.75 4.26667 6.75 4.375V5.25ZM3.5 9.5C3.35833 9.5 3.23967 9.452 3.144 9.356C3.048 9.26033 3 9.14167 3 9V8.5H1C0.725 8.5 0.489667 8.40217 0.294 8.2065C0.098 8.0105 0 7.775 0 7.5V1.5C0 1.225 0.098 0.9895 0.294 0.7935C0.489667 0.597833 0.725 0.5 1 0.5H9C9.275 0.5 9.5105 0.597833 9.7065 0.7935C9.90217 0.9895 10 1.225 10 1.5V7.5C10 7.775 9.90217 8.0105 9.7065 8.2065C9.5105 8.40217 9.275 8.5 9 8.5H7V9C7 9.14167 6.95217 9.26033 6.8565 9.356C6.7605 9.452 6.64167 9.5 6.5 9.5H3.5ZM1.5 7H8.5V2H1.5V7Z" fill="#6D6E72"></path></svg>