<svg width="10" height="8" viewBox="0 0 10 8" fill="none" xmlns="http://www.w3.org/2000/svg"><path d="M9.375 0H0.625C0.45924 0 0.300268 0.0702379 0.183058 0.195262C0.065848 0.320286 0 0.489856 0 0.666667V7.33333C0 7.51014 0.065848 7.67971 0.183058 7.80474C0.300268 7.92976 0.45924 8 0.625 8H9.375C9.54076 8 9.69973 7.92976 9.81694 7.80474C9.93415 7.67971 10 7.51014 10 7.33333V0.666667C10 0.489856 9.93415 0.320286 9.81694 0.195262C9.69973 0.0702379 9.54076 0 9.375 0ZM1.00312 0.666667C1.08087 0.664012 1.15758 0.686174 1.22344 0.730314C1.2893 0.774454 1.34131 0.838562 1.3728 0.914426C1.40429 0.99029 1.41384 1.07445 1.40021 1.15614C1.38657 1.23782 1.35039 1.31331 1.29629 1.37292C1.24219 1.43253 1.17264 1.47356 1.09655 1.49075C1.02045 1.50794 0.941279 1.5005 0.869171 1.46939C0.797062 1.43829 0.735302 1.38493 0.691801 1.31615C0.6483 1.24737 0.62504 1.1663 0.625 1.08333C0.624948 0.975098 0.664383 0.871089 0.734957 0.793321C0.805532 0.715553 0.901707 0.67013 1.00312 0.666667ZM1.00312 7.33333C0.925867 7.33333 0.850343 7.3089 0.786105 7.26311C0.721867 7.21733 0.6718 7.15225 0.642235 7.07612C0.612669 6.99998 0.604933 6.9162 0.620006 6.83538C0.635078 6.75455 0.672282 6.68031 0.726911 6.62204C0.781541 6.56377 0.851144 6.52408 0.926918 6.50801C1.00269 6.49193 1.08123 6.50018 1.15261 6.53172C1.22399 6.56325 1.285 6.61666 1.32792 6.68518C1.37084 6.7537 1.39375 6.83426 1.39375 6.91667C1.39375 7.02717 1.35259 7.13315 1.27934 7.2113C1.20608 7.28944 1.10673 7.33333 1.00312 7.33333ZM2.58438 5.40667C2.17714 5.41641 1.78244 5.25614 1.48438 4.96L1.75313 4.60667C1.98142 4.83976 2.28401 4.97196 2.6 4.97667C2.9125 4.97667 3.08437 4.81 3.08437 4.61333C3.08437 4.41667 2.9 4.31 2.4875 4.20667C1.95625 4.07333 1.58438 3.91 1.58438 3.39333C1.58438 2.87667 1.96562 2.56333 2.52187 2.56333C2.88042 2.55631 3.22837 2.69311 3.49687 2.94667L3.24375 3.31333C3.03896 3.11735 2.77507 3.00618 2.5 3C2.39772 2.98678 2.29469 3.01719 2.21333 3.08462C2.13198 3.15204 2.07889 3.25102 2.06562 3.36C2.06562 3.58333 2.25625 3.66333 2.66562 3.76333C3.20312 3.89333 3.5625 4.07667 3.5625 4.57667C3.5625 5.07667 3.2 5.40667 2.58438 5.40667ZM4.93125 5.40667C4.52402 5.41641 4.12932 5.25614 3.83125 4.96L4.1 4.60667C4.32829 4.83976 4.63088 4.97196 4.94688 4.97667C5.25938 4.97667 5.43125 4.81 5.43125 4.61333C5.43125 4.41667 5.24687 4.31 4.83437 4.20667C4.30312 4.07333 3.93125 3.91 3.93125 3.39333C3.93125 2.87667 4.31563 2.56333 4.86875 2.56333C5.2274 2.55565 5.57557 2.69254 5.84375 2.94667L5.59062 3.31333C5.38938 3.11081 5.12643 2.99246 4.85 2.98C4.74772 2.96678 4.64469 2.99719 4.56333 3.06462C4.48198 3.13204 4.42889 3.23102 4.41562 3.34C4.41562 3.56333 4.60625 3.64333 5.01562 3.74333C5.55312 3.87333 5.9125 4.05667 5.9125 4.55667C5.9125 5.05667 5.54688 5.40667 4.93125 5.40667ZM6.3625 5.36V2.61333H7.26875C8.11875 2.61333 8.71875 3.18333 8.71875 3.98667C8.71875 4.79 8.125 5.36 7.26875 5.36H6.3625ZM8.96562 7.33333C8.88837 7.33333 8.81284 7.3089 8.74861 7.26311C8.68437 7.21733 8.6343 7.15225 8.60473 7.07612C8.57517 6.99998 8.56743 6.9162 8.58251 6.83538C8.59758 6.75455 8.63478 6.68031 8.68941 6.62204C8.74404 6.56377 8.81364 6.52408 8.88942 6.50801C8.96519 6.49193 9.04373 6.50018 9.11511 6.53172C9.18649 6.56325 9.2475 6.61666 9.29042 6.68518C9.33334 6.7537 9.35625 6.83426 9.35625 6.91667C9.35625 7.02717 9.31509 7.13315 9.24184 7.2113C9.16858 7.28944 9.06923 7.33333 8.96562 7.33333ZM8.96562 1.5C8.88837 1.5 8.81284 1.47556 8.74861 1.42978C8.68437 1.384 8.6343 1.31892 8.60473 1.24278C8.57517 1.16665 8.56743 1.08287 8.58251 1.00205C8.59758 0.92122 8.63478 0.846977 8.68941 0.788706C8.74404 0.730434 8.81364 0.69075 8.88942 0.674673C8.96519 0.658596 9.04373 0.666847 9.11511 0.698384C9.18649 0.72992 9.2475 0.783325 9.29042 0.851846C9.33334 0.920366 9.35625 1.00092 9.35625 1.08333C9.35625 1.19384 9.31509 1.29982 9.24184 1.37796C9.16858 1.4561 9.06923 1.5 8.96562 1.5Z" fill="#6D6E72"></path><path d="M6.875 3.00181H7.30868C7.41352 2.99361 7.51853 3.01336 7.61727 3.05982C7.71601 3.10628 7.80639 3.17848 7.88285 3.27197C7.95931 3.36546 8.02023 3.47828 8.06187 3.60348C8.10352 3.72868 8.125 3.86362 8.125 4C8.125 4.13638 8.10352 4.27132 8.06187 4.39652C8.02023 4.52172 7.95931 4.63454 7.88285 4.72803C7.80639 4.82153 7.71601 4.89372 7.61727 4.94018C7.51853 4.98664 7.41352 5.00639 7.30868 4.99819H6.875V3.00181Z" fill="#6D6E72"></path></svg>