<svg width="10" height="10" viewBox="0 0 10 10" fill="none" xmlns="http://www.w3.org/2000/svg"><g clip-path="url(#clip0_8337_18915)"><path d="M5 0.833313V4.37498" stroke="#6D6E72" stroke-width="0.833333" stroke-linecap="round" stroke-linejoin="round"></path><path d="M4.99992 0.833313C2.69867 0.833313 0.833252 2.69873 0.833252 4.99998C0.833252 7.30123 2.69867 9.16665 4.99992 9.16665C7.30117 9.16665 9.16659 7.30123 9.16659 4.99998C9.16659 4.03623 8.8395 3.14894 8.29013 2.4431" stroke="#6D6E72" stroke-width="0.833333" stroke-linecap="round"></path><path d="M4.99992 2.70831C3.73429 2.70831 2.70825 3.73435 2.70825 4.99998C2.70825 6.2656 3.73429 7.29165 4.99992 7.29165C6.26554 7.29165 7.29159 6.2656 7.29159 4.99998C7.29159 4.46998 7.11159 3.98185 6.8095 3.59373" stroke="#6D6E72" stroke-width="0.833333" stroke-linecap="round"></path><path d="M5 5.625C5.34518 5.625 5.625 5.34518 5.625 5C5.625 4.65482 5.34518 4.375 5 4.375C4.65482 4.375 4.375 4.65482 4.375 5C4.375 5.34518 4.65482 5.625 5 5.625Z" stroke="#6D6E72" stroke-width="0.833333"></path></g><defs><clipPath id="clip0_8337_18915"><rect width="10" height="10" fill="white"></rect></clipPath></defs></svg>