<svg width="18" height="20" viewBox="0 0 18 20" fill="none" xmlns="http://www.w3.org/2000/svg">
<path d="M9 3.5V6M9 3.5C9 3.00555 9.14662 2.5222 9.42133 2.11108C9.69603 1.69995 10.0865 1.37952 10.5433 1.1903C11.0001 1.00108 11.5028 0.951575 11.9877 1.04804C12.4727 1.1445 12.9181 1.3826 13.2678 1.73223C13.6174 2.08187 13.8555 2.52732 13.952 3.01228C14.0484 3.49723 13.9989 3.99989 13.8097 4.45671C13.6205 4.91352 13.3 5.30397 12.8889 5.57867C12.4778 5.85338 11.9945 6 11.5 6H9M9 3.5C9 3.00555 8.85338 2.5222 8.57867 2.11108C8.30397 1.69995 7.91352 1.37952 7.45671 1.1903C6.99989 1.00108 6.49723 0.951575 6.01227 1.04804C5.52732 1.1445 5.08187 1.3826 4.73223 1.73223C4.3826 2.08187 4.1445 2.52732 4.04804 3.01228C3.95157 3.49723 4.00108 3.99989 4.1903 4.45671C4.37952 4.91352 4.69995 5.30397 5.11108 5.57867C5.5222 5.85338 6.00555 6 6.5 6H9" stroke="currentcolor" stroke-miterlimit="10" stroke-linecap="round"></path>
<path d="M15.6667 6H2.33333C1.59695 6 1 6.63959 1 7.42857V9.57143C1 10.3604 1.59695 11 2.33333 11H15.6667C16.403 11 17 10.3604 17 9.57143V7.42857C17 6.63959 16.403 6 15.6667 6Z" stroke="currentcolor" stroke-linecap="round" stroke-linejoin="round"></path>
<path d="M16 10.7895V16.9474C16 17.4918 15.7788 18.0139 15.3849 18.3988C14.9911 18.7837 14.457 19 13.9 19H4.1C3.54305 19 3.0089 18.7837 2.61508 18.3988C2.22125 18.0139 2 17.4918 2 16.9474V10.7895M9 6V19" stroke="currentcolor" stroke-linecap="round" stroke-linejoin="round"></path>
</svg>