<svg width="16" height="21" viewBox="0 0 16 21" fill="none" xmlns="http://www.w3.org/2000/svg">
<path d="M3.42375 13.6057H12.5762" stroke="currentcolor"></path>
<path d="M3.4238 10.5999V14.6879C3.4238 15.2402 3.87151 15.6879 4.4238 15.6879H11.5763C12.1286 15.6879 12.5763 15.2402 12.5763 14.6879V10.6C12.5763 9.85202 12.3071 9.12907 11.8179 8.56331C11.706 8.43393 11.6913 8.24664 11.7753 8.09763C12.0408 7.62651 12.5763 6.57918 12.5763 5.79604C12.5763 5.02711 11.5738 3.90031 11.0494 3.36352C10.8544 3.16391 10.7346 2.89476 10.637 2.63335C10.545 2.38712 10.3694 2.04387 10.034 1.631C9.32994 0.76449 6.3573 0.815216 5.80972 1.63104C5.544 2.02692 5.40722 2.37444 5.33682 2.62732C5.26197 2.89614 5.14568 3.16391 4.95069 3.36352C4.42631 3.90031 3.4238 5.02711 3.4238 5.79604C3.4238 6.57918 3.95929 7.62651 4.22477 8.09764C4.30873 8.24664 4.29406 8.43393 4.18219 8.56331C3.693 9.12907 3.4238 9.85201 3.4238 10.5999Z" stroke="currentcolor"></path>
<path d="M12.6666 14.6291H13.7406C14.2929 14.6291 14.7406 14.1814 14.7406 13.6291V11.4437" stroke="currentcolor"></path>
<path d="M3.33347 14.6291H2.25942C1.70713 14.6291 1.25942 14.1814 1.25942 13.6291V11.4437" stroke="currentcolor"></path>
<path d="M15.7777 11.4437H13.7036" stroke="currentcolor"></path>
<path d="M2.29638 11.4437H0.222336" stroke="currentcolor"></path>
<path d="M8.00002 15.6906V18.876" stroke="currentcolor"></path>
<rect x="3.31494" y="18.3146" width="2.11107" height="2.18544" rx="1.05554" stroke="currentcolor"></rect>
<rect x="10.5741" y="18.3146" width="2.11107" height="2.18544" rx="1.05554" stroke="currentcolor"></rect>
<path d="M4.37036 18.3452H11.6295" stroke="currentcolor"></path>
</svg>