<svg width="20" height="18" viewBox="0 0 20 18" fill="none" xmlns="http://www.w3.org/2000/svg">
<path d="M2.12753 12.7623C2.35 9.44444 4.96063 9 6.0625 9H6.90625C7.37225 9 7.75 9.38375 7.75 9.85714V16.1429C7.75 16.6162 7.37225 17 6.90625 17H6.0625C3.93277 17 2.19823 15.2822 2.12753 13.1362L1.62188 12.8794C1.43501 12.7844 1.27785 12.6385 1.16801 12.458C1.05817 12.2774 0.999997 12.0694 1 11.8571V10.1429C1 5.08914 5.02609 1 10 1C14.9748 1 19 5.09003 19 10.1429V11.8571C19 12.0694 18.9418 12.2774 18.832 12.458C18.7221 12.6385 18.565 12.7844 18.3781 12.8794L17.8725 13.1362C17.8018 15.2822 16.0672 17 13.9375 17H13.0938C12.6278 17 12.25 16.6162 12.25 16.1429V9.85714C12.25 9.38375 12.6278 9 13.0938 9H13.9375C17.65 9 17.8725 11.6667 17.8725 12.7623" stroke="currentcolor"></path>
</svg>