<svg width="20" height="13" viewBox="0 0 20 13" fill="none" xmlns="http://www.w3.org/2000/svg">
<mask id="path-1-inside-1_5068_8551" fill="currentcolor">
<path d="M4.00002 1C3.44774 1 3.00002 1.44772 3.00002 2V8.5C3.00002 9.05229 3.44774 9.5 4.00002 9.5H16C16.5523 9.5 17 9.05229 17 8.5V2C17 1.44772 16.5523 1 16 1H4.00002ZM3.70002 0H10H16.3C16.7774 0 17.2353 0.184374 17.5728 0.512563C17.9104 0.840752 18.1 1.28587 18.1 1.75V8.75C18.1 9.21413 17.9104 9.65925 17.5728 9.98744C17.2353 10.3156 16.7774 10.5 16.3 10.5H3.70002C3.22263 10.5 2.7648 10.3156 2.42723 9.98744C2.08967 9.65925 1.90002 9.21413 1.90002 8.75V1.75C1.90002 1.28587 2.08967 0.840752 2.42723 0.512563C2.7648 0.184374 3.22263 0 3.70002 0Z"></path>
</mask>
<path d="M4.00002 1C3.44774 1 3.00002 1.44772 3.00002 2V8.5C3.00002 9.05229 3.44774 9.5 4.00002 9.5H16C16.5523 9.5 17 9.05229 17 8.5V2C17 1.44772 16.5523 1 16 1H4.00002ZM3.70002 0H10H16.3C16.7774 0 17.2353 0.184374 17.5728 0.512563C17.9104 0.840752 18.1 1.28587 18.1 1.75V8.75C18.1 9.21413 17.9104 9.65925 17.5728 9.98744C17.2353 10.3156 16.7774 10.5 16.3 10.5H3.70002C3.22263 10.5 2.7648 10.3156 2.42723 9.98744C2.08967 9.65925 1.90002 9.21413 1.90002 8.75V1.75C1.90002 1.28587 2.08967 0.840752 2.42723 0.512563C2.7648 0.184374 3.22263 0 3.70002 0Z" fill="currentcolor"></path>
<path d="M1 12L19 12" stroke="currentcolor" stroke-linecap="round"></path>
</svg>