<svg width="20" height="14" viewBox="0 0 20 14" fill="none" xmlns="http://www.w3.org/2000/svg">
<path d="M18 1C18.5523 1 19 1.44772 19 2L19 3.5C19 3.5 17.5 3.75127 17.5 5.5C17.5 7.24873 19 7.5 19 7.5L19 9C19 9.55229 18.5523 10 18 10L2 10C1.44772 10 1 9.55228 1 9L1 7.5C1 7.5 2.5 7.27709 2.5 5.5C2.5 3.72291 1 3.5 1 3.5L1 2C1 1.44771 1.44772 0.999999 2 0.999999L18 1Z" stroke="currentColor"></path>
<path d="M3 10H17V12C17 12.5523 16.5523 13 16 13H4C3.44772 13 3 12.5523 3 12V10Z" stroke="currentColor"></path>
<rect x="5" y="3" width="1" height="5" fill="currentColor"></rect>
<rect x="5" y="10" width="1" height="3" fill="currentColor"></rect>
<rect x="8" y="10" width="1" height="3" fill="currentColor"></rect>
<rect x="11" y="10" width="1" height="3" fill="currentColor"></rect>
<rect x="14" y="10" width="1" height="3" fill="currentColor"></rect>
<rect x="9.5" y="3" width="1" height="5" fill="currentColor"></rect>
<rect x="14" y="3" width="1" height="5" fill="currentColor"></rect>
</svg>