<svg viewBox="0 0 16 18" fill="none" xmlns="http://www.w3.org/2000/svg"><path d="M5.39943 16.7753C5.49749 16.9703 5.45778 17.2063 5.30133 17.3585C5.14488 17.5106 4.90783 17.5437 4.71569 17.4402C2.9692 16.4998 1.79465 15.5487 1.13674 14.471C0.464139 13.3693 0.367829 12.1968 0.646145 10.9097L5.39943 16.7753ZM5.39943 16.7753C4.89503 15.7725 4.80178 15.0358 4.89423 14.4437C4.9882 13.8418 5.28316 13.3232 5.68383 12.7637C5.95783 12.381 6.17408 12.0003 6.34344 11.6508M5.39943 16.7753L6.34344 11.6508M6.34344 11.6508C6.36183 12.0334 6.34356 12.5009 6.25635 13.0603C6.22258 13.2769 6.33385 13.4902 6.53082 13.5865C6.72778 13.6828 6.96448 13.6395 7.11466 13.4798C7.84055 12.7078 8.26236 11.4993 8.48497 10.4409C8.59303 9.92713 8.65856 9.4274 8.68677 8.99492C10.7405 10.9421 11.4809 14.2642 10.1376 16.7633C10.033 16.9578 10.0685 17.198 10.2249 17.354C10.3813 17.51 10.6215 17.5449 10.8158 17.4398C13.0649 16.224 14.3789 14.8255 15.0184 13.3585C15.6589 11.8891 15.5946 10.4152 15.2091 9.10503C14.8254 7.80075 14.1196 6.64183 13.4459 5.76431C12.7776 4.89379 12.1105 4.2611 11.7684 4.02276C11.5821 3.89299 11.3318 3.90499 11.1588 4.05198C10.9858 4.19897 10.9336 4.44405 11.0315 4.64883C11.0637 4.716 11.091 4.7897 11.1134 4.86902C10.598 3.85925 9.86676 3.00784 9.17368 2.34659C8.58021 1.78037 7.99763 1.33723 7.56357 1.0355C7.34615 0.884368 7.16497 0.768007 7.03694 0.688754C6.97291 0.649112 6.92209 0.618704 6.88661 0.597826L6.84511 0.573674L6.83346 0.567017L6.82999 0.565054L6.82886 0.564415L6.82844 0.564181C6.82828 0.564089 6.82813 0.564005 6.58337 1L6.82813 0.564005C6.67509 0.47809 6.48821 0.478706 6.33574 0.565628C6.18327 0.652549 6.08753 0.813049 6.0835 0.988509C6.02938 3.34264 5.24321 5.60204 4.01193 7.39365C3.87056 6.87285 3.64761 6.38093 3.3177 5.80732C3.20794 5.61647 2.98625 5.51988 2.77174 5.56943C2.55722 5.61898 2.40036 5.80302 2.38543 6.02268C2.33255 6.80012 2.0296 7.52338 1.65494 8.32242C1.6136 8.41059 1.57127 8.49988 1.52841 8.59028C1.19449 9.2946 0.828337 10.0669 0.646149 10.9096L6.34344 11.6508Z" fill="#FDD835" stroke="#FF3C53" stroke-linejoin="round"></path></svg>