<svg width="16" height="18" viewBox="0 0 16 18" fill="none" xmlns="http://www.w3.org/2000/svg">
								<path d="M4.95771 1.78875C3.86924 2.08404 2.78817 2.40514 1.71543 2.75175C1.61748 2.78298 1.5304 2.84067 1.46413 2.91824C1.39785 2.99581 1.35504 3.09015 1.34058 3.1905C0.707434 7.86713 2.17029 11.2793 3.91543 13.527C4.6543 14.4882 5.53532 15.335 6.52914 16.0391C6.92457 16.3136 7.27428 16.5116 7.54971 16.6388C7.68685 16.7029 7.79885 16.7456 7.88457 16.7715C7.92205 16.7844 7.9607 16.7939 7.99999 16.7996C8.03882 16.7934 8.07705 16.784 8.11428 16.7715C8.20114 16.7456 8.31314 16.7029 8.45028 16.6388C8.72457 16.5116 9.07542 16.3125 9.47085 16.0391C10.4647 15.335 11.3457 14.4882 12.0846 13.527C13.8297 11.2804 15.2926 7.86713 14.6594 3.1905C14.6451 3.0901 14.6023 2.99571 14.536 2.91811C14.4697 2.84052 14.3826 2.78287 14.2846 2.75175C13.5406 2.51213 12.2846 2.12175 11.0423 1.78987C9.77371 1.45125 8.60685 1.20038 7.99999 1.20038C7.39428 1.20038 6.22628 1.45012 4.95771 1.78875ZM4.65371 0.63C5.89371 0.298125 7.21142 0 7.99999 0C8.78856 0 10.1063 0.298125 11.3463 0.63C12.6148 0.9675 13.8937 1.36687 14.6457 1.60875C14.9601 1.71096 15.2389 1.8984 15.4499 2.14954C15.661 2.40068 15.7958 2.70533 15.8388 3.0285C16.52 8.06513 14.9394 11.7979 13.0217 14.2673C12.2085 15.3236 11.2388 16.2538 10.1451 17.0269C9.76695 17.2944 9.36626 17.5296 8.94742 17.73C8.62742 17.8785 8.28342 18 7.99999 18C7.71657 18 7.37371 17.8785 7.05257 17.73C6.63373 17.5296 6.23303 17.2944 5.85486 17.0269C4.76117 16.2538 3.79152 15.3236 2.97829 14.2673C1.06058 11.7979 -0.519993 8.06513 0.161149 3.0285C0.20422 2.70533 0.339026 2.40068 0.550082 2.14954C0.761137 1.8984 1.03988 1.71096 1.35429 1.60875C2.44594 1.25641 3.54606 0.930065 4.65371 0.63Z" fill="currentcolor"></path>
								<path d="M11.2618 5.78928C11.315 5.84153 11.3572 5.9036 11.386 5.97194C11.4148 6.04028 11.4297 6.11354 11.4297 6.18753C11.4297 6.26152 11.4148 6.33478 11.386 6.40312C11.3572 6.47145 11.315 6.53353 11.2618 6.58578L7.83322 9.96078C7.78014 10.0132 7.71708 10.0547 7.64765 10.0831C7.57823 10.1114 7.50381 10.126 7.42865 10.126C7.35348 10.126 7.27906 10.1114 7.20964 10.0831C7.14021 10.0547 7.07715 10.0132 7.02407 9.96078L5.30979 8.27328C5.25666 8.22098 5.21452 8.15889 5.18576 8.09056C5.15701 8.02223 5.14221 7.94899 5.14221 7.87503C5.14221 7.80107 5.15701 7.72783 5.18576 7.6595C5.21452 7.59117 5.25666 7.52908 5.30979 7.47678C5.36292 7.42448 5.42599 7.38299 5.49541 7.35469C5.56483 7.32639 5.63923 7.31182 5.71436 7.31182C5.7895 7.31182 5.8639 7.32639 5.93331 7.35469C6.00273 7.38299 6.0658 7.42448 6.11893 7.47678L7.42865 8.76715L10.4526 5.78928C10.5057 5.73689 10.5688 5.69533 10.6382 5.66698C10.7076 5.63862 10.782 5.62402 10.8572 5.62402C10.9324 5.62402 11.0068 5.63862 11.0762 5.66698C11.1456 5.69533 11.2087 5.73689 11.2618 5.78928Z" fill="currentcolor"></path>
							</svg>