<svg version="1.0" xmlns="http://www.w3.org/2000/svg" width="27" height="27" viewBox="0 0 30 30" preserveAspectRatio="xMidYMid meet">

<g transform="translate(0.000000,32.000000) scale(0.100000,-0.100000)" fill="#000000" stroke="none">
<path d="M100 221 c-30 -29 -41 -83 -21 -95 5 -3 9 9 8 28 -2 58 48 95 101 75
33 -13 37 -12 37 3 0 6 -20 13 -48 15 -42 4 -51 1 -77 -26z"></path>
<path d="M133 206 c-34 -16 -32 -77 2 -93 41 -19 75 3 75 48 0 26 -5 38 -17
43 -10 3 -22 8 -28 10 -5 2 -20 -2 -32 -8z m47 -19 c20 -16 19 -39 -2 -55 -35
-26 -72 28 -38 55 8 7 17 12 20 12 3 0 12 -5 20 -12z"></path>
<path d="M142 163 c4 -23 32 -23 36 0 2 12 -3 17 -18 17 -15 0 -20 -5 -18 -17z"></path>
<path d="M233 166 c2 -55 -48 -95 -95 -77 -33 13 -43 12 -43 -1 0 -6 20 -13
48 -15 42 -4 51 -1 77 26 30 29 41 83 21 95 -5 3 -9 -9 -8 -28z"></path>
</g>
</svg>