<svg width="19" height="19" viewBox="0 0 19 19" fill="none" xmlns="http://www.w3.org/2000/svg">
								<rect x="3.95453" y="3.95454" width="2.27273" height="2.27273" rx="1.13636" stroke="currentcolor"></rect>
								<path d="M9.18179 11.6364L12.4545 14.9091" stroke="currentcolor" stroke-linecap="round"></path>
								<path d="M10 7.54546L14.9091 12.4545" stroke="currentcolor" stroke-linecap="round"></path>
								<path d="M10.2227 17.6407L1.61378 9.3629C1.22163 8.98583 1 8.46527 1 7.92124V4.28297C1 3.75254 1.21071 3.24383 1.58579 2.86876L2.86876 1.58579C3.24383 1.21071 3.75254 1 4.28297 1H7.92124C8.46527 1 8.98583 1.22163 9.3629 1.61378L13.8864 6.31818L17.6407 10.2227C18.3957 11.0079 18.3835 12.2529 17.6132 13.0231L13.0231 17.6132C12.2529 18.3835 11.0079 18.3957 10.2227 17.6407Z" stroke="currentcolor" stroke-linecap="round" stroke-linejoin="round"></path>
							</svg>